# xmcd
#
# Track frame offsets: 
#        150
#        29029
#        56650
#        83177
#        111902
#        141921
#        168476
#        190176
#        203793
#        222515
#        236132
#
# Disc length: 3371 seconds
#
# Revision: 1
# Processed by: cddbd v1.5.2PL0 Copyright (c) Steve Scherf et al.
# Submitted via: ExactAudioCopy v1.0b2
#
DISCID=a90d290b
DTITLE=Renaud García-Fons - Solo - The Marcevol Concert
DYEAR=2011
DGENRE=Jazz
TTITLE0=Palermo Notturno
TTITLE1=Hacia Compostela
TTITLE2=Kalimbass
TTITLE3=Marcevol
TTITLE4=Bajo de Guía
TTITLE5=Voyage à Jeyhounabad
TTITLE6=Yupanqui
TTITLE7=Kurdish Mood
TTITLE8=Pilgrim
TTITLE9=Rock Wandering
TTITLE10=Far Ballad
EXTD=YEAR: 2011
EXTT0=
EXTT1=
EXTT2=
EXTT3=
EXTT4=
EXTT5=
EXTT6=
EXTT7=
EXTT8=
EXTT9=
EXTT10=
PLAYORDER=
